<svg width="100" height="100" viewBox="0 0 100 100" fill="none" xmlns="http://www.w3.org/2000/svg">
<rect width="100" height="100" rx="20" fill="url(#paint0_linear_19_11)"/>
<path d="M65.3125 64.8125H64.8125V65.3125V71.375H33.5938C31.1156 71.375 28.739 70.3906 26.9867 68.6383C25.2344 66.886 24.25 64.5094 24.25 62.0312C24.25 59.5531 25.2344 57.1765 26.9867 55.4242C28.739 53.6719 31.1156 52.6875 33.5938 52.6875H34.6875H35.1875V52.1875V47.8125V47.3125H34.6875H33.5938C29.6901 47.3125 25.9463 48.8632 23.186 51.6235C20.4257 54.3838 18.875 58.1276 18.875 62.0312C18.875 65.9349 20.4257 69.6787 23.186 72.439C25.9463 75.1993 29.6901 76.75 33.5938 76.75H64.8125V82.8125V83.3125H65.3125H82.8125H83.3125V82.8125V65.3125V64.8125H82.8125H65.3125ZM77.9375 77.9375H70.1875V70.1875H77.9375V77.9375Z" fill="white" stroke="white"/>
<path d="M60.9375 63.125H56.5625V56.5625H43.4375V63.125H39.0625V56.5625C39.0637 55.4025 39.525 54.2904 40.3452 53.4702C41.1654 52.65 42.2775 52.1887 43.4375 52.1875H56.5625C57.7225 52.1887 58.8346 52.65 59.6548 53.4702C60.475 54.2904 60.9363 55.4025 60.9375 56.5625V63.125ZM50 50C48.7021 50 47.4333 49.6151 46.3541 48.894C45.2749 48.1729 44.4337 47.148 43.937 45.9489C43.4403 44.7497 43.3104 43.4302 43.5636 42.1572C43.8168 40.8842 44.4418 39.7149 45.3596 38.7971C46.2774 37.8793 47.4467 37.2543 48.7197 37.0011C49.9927 36.7479 51.3122 36.8778 52.5114 37.3745C53.7105 37.8712 54.7354 38.7124 55.4565 39.7916C56.1776 40.8708 56.5625 42.1396 56.5625 43.4375C56.5608 45.1775 55.8688 46.8456 54.6385 48.076C53.4081 49.3063 51.74 49.9983 50 50ZM50 41.25C49.5674 41.25 49.1444 41.3783 48.7847 41.6187C48.425 41.859 48.1446 42.2007 47.979 42.6004C47.8134 43.0001 47.7701 43.4399 47.8545 43.8643C47.9389 44.2886 48.1473 44.6784 48.4532 44.9843C48.7591 45.2902 49.1489 45.4986 49.5732 45.583C49.9976 45.6674 50.4374 45.6241 50.8371 45.4585C51.2368 45.2929 51.5785 45.0125 51.8188 44.6528C52.0592 44.2931 52.1875 43.8702 52.1875 43.4375C52.1869 42.8575 51.9563 42.3015 51.5462 41.8913C51.136 41.4812 50.58 41.2506 50 41.25Z" fill="white"/>
<path d="M35.1875 23.25V17.1875V16.6875H34.6875H17.1875H16.6875V17.1875V34.6875V35.1875H17.1875H34.6875H35.1875V34.6875V28.625H66.4062C68.8844 28.625 71.261 29.6094 73.0133 31.3617C74.7656 33.114 75.75 35.4906 75.75 37.9688C75.75 40.4469 74.7656 42.8235 73.0133 44.5758C71.261 46.3281 68.8844 47.3125 66.4062 47.3125H65.3125H64.8125V47.8125V52.1875V52.6875H65.3125H66.4062C70.3099 52.6875 74.0537 51.1368 76.814 48.3765C79.5743 45.6162 81.125 41.8724 81.125 37.9688C81.125 34.0651 79.5743 30.3213 76.814 27.561C74.0537 24.8007 70.3099 23.25 66.4062 23.25H35.1875ZM29.8125 29.8125H22.0625V22.0625H29.8125V29.8125Z" fill="white" stroke="white"/>
<defs>
<linearGradient id="paint0_linear_19_11" x1="17.7778" y1="18.8889" x2="108.889" y2="112.778" gradientUnits="userSpaceOnUse">
<stop stop-color="#48C946"/>
<stop offset="1" stop-color="#79DB70"/>
</linearGradient>
</defs>
</svg>
